<?xml version="1.0" standalone="no"?>
<!DOCTYPE svg PUBLIC "-//W3C//DTD SVG 20010904//EN"
 "http://www.w3.org/TR/2001/REC-SVG-20010904/DTD/svg10.dtd">
<svg version="1.0" xmlns="http://www.w3.org/2000/svg"
 width="700.000000pt" height="700.000000pt" viewBox="0 0 700.000000 700.000000"
 preserveAspectRatio="xMidYMid meet">
<metadata>
Created by potrace 1.11, written by Peter Selinger 2001-2013
</metadata>
<g transform="translate(0.000000,700.000000) scale(0.100000,-0.100000)"
fill="#000000" stroke="none">
<path d="M3248 6995 c-2 -1 -41 -5 -88 -9 -87 -7 -128 -11 -190 -21 -19 -3
-53 -8 -75 -11 -22 -3 -47 -7 -55 -9 -8 -2 -31 -7 -50 -10 -144 -23 -364 -87
-560 -162 -283 -108 -537 -248 -803 -441 l-48 -35 -37 35 c-20 19 -54 50 -75
69 l-38 34 -197 0 -197 0 -3 -330 -2 -329 -47 -61 c-26 -33 -55 -69 -65 -79
-9 -10 -53 -71 -96 -135 -240 -352 -404 -709 -508 -1110 -19 -74 -37 -151 -40
-170 -3 -20 -7 -44 -10 -53 -7 -24 -22 -111 -39 -228 -14 -100 -20 -228 -19
-440 0 -228 4 -310 25 -455 21 -151 37 -237 70 -375 30 -124 116 -397 143
-455 8 -16 24 -53 35 -82 36 -93 141 -301 207 -410 35 -59 64 -108 64 -110 0
-2 4 -9 10 -16 5 -7 46 -64 91 -127 45 -63 102 -140 128 -170 l46 -54 5 -410
5 -410 200 0 200 1 155 80 156 80 44 -29 c380 -243 761 -397 1190 -482 117
-23 193 -35 265 -41 17 -2 66 -7 110 -12 98 -10 472 -11 575 -1 162 16 200 21
330 44 602 109 1168 380 1635 784 132 114 350 346 495 527 78 97 234 345 314
497 99 188 243 551 270 679 3 12 14 58 26 101 25 97 25 97 54 271 36 211 48
348 49 565 0 134 -9 331 -18 390 -2 14 -6 47 -9 73 -25 220 -127 634 -196 792
-4 11 -23 56 -40 100 -163 407 -449 836 -766 1149 -447 441 -981 747 -1559
895 -208 52 -301 69 -550 98 -45 5 -512 13 -517 8z"/>
</g>
</svg>
