<svg width="350" height="354" viewBox="0 0 350 354" fill="none" xmlns="http://www.w3.org/2000/svg">
<path d="M254.025 215.449L0 354H239.818L333.245 270.96L341.428 265.955L333.472 261.291L254.025 215.449Z" fill="#76CD1A"/>
<path d="M237.886 4.66388V206.121L341.428 265.955V64.4981L237.886 4.66388Z" fill="white"/>
<path d="M349.384 270.96L341.428 275.624V64.4981L349.384 59.8342V270.96Z" fill="#3F92D1"/>
<path d="M253.798 215.676L245.729 220.34V9.21399L253.798 4.55011V215.676Z" fill="#3F92D1"/>
<path d="M245.955 0L237.999 4.66388L341.428 64.4981L349.384 59.8342L245.955 0Z" fill="#A8CFF0"/>
<path d="M341.2 62.7918L237.999 4.66388L341.428 64.4981L349.384 59.8342L341.2 62.7918Z" fill="white"/>
<path d="M237.886 4.66388V215.79L245.842 220.34V18.3143L333.472 68.9344V270.96L341.428 275.624V64.4981L237.886 4.66388Z" fill="#72B5E8"/>
<path d="M173.556 66.3181V263.794L250.843 219.089V21.7268L173.556 66.3181Z" fill="#A8CFF0"/>
<path opacity="0.7" d="M182.762 77.3521L241.636 43.2262V53.1227L182.762 87.2487V77.3521Z" fill="#72B5E8"/>
<path d="M239.818 44.25V52.099L241.637 53.1227V43.2262L239.818 44.25Z" fill="#D1EBFF"/>
<path d="M239.818 52.099L182.762 85.2012V87.2487L241.636 53.1228L239.818 52.099Z" fill="#F0F8FF"/>
<path opacity="0.7" d="M182.762 99.9891L241.636 65.8631V75.7596L182.762 109.886V99.9891Z" fill="#72B5E8"/>
<path d="M239.818 66.8869V74.7358L241.637 75.7596V65.8631L239.818 66.8869Z" fill="#D1EBFF"/>
<path d="M239.818 74.7359L182.762 107.838V109.886L241.636 75.7597L239.818 74.7359Z" fill="#F0F8FF"/>
<path opacity="0.7" d="M182.762 122.626L241.636 88.5V98.5103L182.762 132.522V122.626Z" fill="#72B5E8"/>
<path d="M239.818 89.5238V97.3728L241.637 98.5103V88.5L239.818 89.5238Z" fill="#D1EBFF"/>
<path d="M239.818 97.3728L182.762 130.475V132.523L241.636 98.5103L239.818 97.3728Z" fill="#F0F8FF"/>
<path opacity="0.7" d="M182.762 145.263L241.636 111.137V121.147L182.762 155.159V145.263Z" fill="#72B5E8"/>
<path d="M239.818 112.161V120.01L241.637 121.147V111.137L239.818 112.161Z" fill="#D1EBFF"/>
<path d="M239.818 120.01L182.762 153.112V155.159L241.636 121.147L239.818 120.01Z" fill="#F0F8FF"/>
<path opacity="0.7" d="M182.762 167.9L241.636 133.774V143.784L182.762 177.796V167.9Z" fill="#72B5E8"/>
<path d="M239.818 134.798V142.647L241.637 143.784V133.774L239.818 134.798Z" fill="#D1EBFF"/>
<path d="M239.818 142.647L182.762 175.749V177.796L241.636 143.784L239.818 142.647Z" fill="#F0F8FF"/>
<path opacity="0.7" d="M182.762 190.537L241.636 156.411V166.421L182.762 200.433V190.537Z" fill="#72B5E8"/>
<path d="M239.818 157.434V165.283L241.637 166.421V156.411L239.818 157.434Z" fill="#D1EBFF"/>
<path d="M239.818 165.283L182.762 198.386V200.433L241.636 166.421L239.818 165.283Z" fill="#F0F8FF"/>
<path opacity="0.7" d="M182.762 213.173L241.636 179.047V189.058L182.762 223.07V213.173Z" fill="#72B5E8"/>
<path d="M239.818 180.071V187.92L241.637 189.058V179.047L239.818 180.071Z" fill="#D1EBFF"/>
<path d="M239.818 187.92L182.762 221.022V223.07L241.636 189.058L239.818 187.92Z" fill="#F0F8FF"/>
<path opacity="0.7" d="M182.762 235.81L241.636 201.684V211.695L182.762 245.707V235.81Z" fill="#72B5E8"/>
<path d="M239.818 202.708V210.671L241.637 211.695V201.684L239.818 202.708Z" fill="#D1EBFF"/>
<path d="M239.818 210.671L182.762 243.659V245.707L241.636 211.695L239.818 210.671Z" fill="#F0F8FF"/>
<path d="M173.669 66.3181V263.794L169.464 261.177V63.8156L173.669 66.3181Z" fill="#D1EBFF"/>
<path d="M169.464 63.8156L173.669 66.3181L250.843 21.7269L246.637 19.2243L169.464 63.8156Z" fill="#F0F8FF"/>
<path d="M169.464 63.8155L173.669 66.318L250.843 21.7268L173.897 64.3842L169.464 63.8155Z" fill="white"/>
<path d="M178.556 156.638V177L184.807 173.36V152.998L178.556 156.638Z" fill="#A8CFF0"/>
<path d="M178.556 156.638V177L177.647 176.545V156.069L178.556 156.638Z" fill="#D1EBFF"/>
<path d="M177.647 156.069L178.556 156.638L184.807 152.998L183.898 152.429L177.647 156.069Z" fill="#F0F8FF"/>
<path d="M183.103 168.582C183.103 167.786 182.534 167.558 181.852 167.9C181.17 168.241 180.602 169.265 180.602 169.947C180.602 170.516 180.943 170.857 181.398 170.744V173.019L182.193 172.564V170.289C182.762 169.947 183.103 169.265 183.103 168.582Z" fill="#2672AB"/>
<path d="M181.511 162.667C183.557 162.781 189.467 160.165 191.854 157.776C194.127 155.501 194.355 153.226 194.923 154.022C195.491 154.818 193.332 159.823 190.377 161.757C186.171 164.601 182.875 165.397 181.625 165.283C179.92 165.283 180.147 162.667 181.511 162.667Z" fill="#F0F8FF"/>
<path d="M194.923 154.022C194.809 153.794 194.696 153.794 194.582 153.908C194.696 155.387 192.65 159.482 190.036 161.302C185.83 164.146 182.534 164.942 181.284 164.828C180.943 164.828 180.716 164.715 180.488 164.601C180.716 165.056 181.057 165.397 181.625 165.397C182.875 165.511 186.171 164.715 190.377 161.871C193.332 159.823 195.491 154.932 194.923 154.022Z" fill="#D1EBFF"/>
</svg>
