<?xml version="1.0" encoding="UTF-8"?>
<!DOCTYPE svg PUBLIC "-//W3C//DTD SVG 1.1//EN" "http://www.w3.org/Graphics/SVG/1.1/DTD/svg11.dtd">
<svg xmlns="http://www.w3.org/2000/svg" version="1.1" width="472px" height="144px" style="shape-rendering:geometricPrecision; text-rendering:geometricPrecision; image-rendering:optimizeQuality; fill-rule:evenodd; clip-rule:evenodd" xmlns:xlink="http://www.w3.org/1999/xlink">
<g><path style="opacity:1" fill="#74cb20" d="M 409.5,5.5 C 409.833,5.5 410.167,5.5 410.5,5.5C 419.827,6.4973 429.16,7.4973 438.5,8.5C 439.552,10.256 441.219,10.9227 443.5,10.5C 443.5,11.5 443.5,12.5 443.5,13.5C 446.167,13.5 448.833,13.5 451.5,13.5C 452.791,13.2627 453.791,13.596 454.5,14.5C 455.653,48.4583 455.819,82.4583 455,116.5C 453.59,117.787 452.09,118.954 450.5,120C 442.178,121.353 434.178,123.186 426.5,125.5C 421.478,125.782 416.478,125.949 411.5,126C 409.833,123.845 408.833,121.345 408.5,118.5C 408.891,80.8808 409.224,43.2141 409.5,5.5 Z M 418.5,64.5 C 418.842,65.3382 419.508,65.6716 420.5,65.5C 420.5,67.5 420.5,69.5 420.5,71.5C 419.5,71.5 418.5,71.5 417.5,71.5C 417.5,69.5 417.5,67.5 417.5,65.5C 417.5,64.8333 417.833,64.5 418.5,64.5 Z M 420.5,71.5 C 421.833,71.5 423.167,71.5 424.5,71.5C 424.684,74.3213 423.351,75.9879 420.5,76.5C 419.893,76.3764 419.56,76.0431 419.5,75.5C 420.434,74.4324 420.768,73.099 420.5,71.5 Z M 420.5,63.5 C 422.38,63.2291 423.713,63.8958 424.5,65.5C 423.167,65.5 421.833,65.5 420.5,65.5C 420.5,64.8333 420.5,64.1667 420.5,63.5 Z"/></g>
<g><path style="opacity:1" fill="#538258" d="M 438.5,8.5 C 429.16,7.4973 419.827,6.4973 410.5,5.5C 412.848,4.04832 415.514,3.38165 418.5,3.5C 425.385,4.80401 432.052,6.47068 438.5,8.5 Z"/></g>
<g><path style="opacity:1" fill="#407547" d="M 408.5,5.5 C 408.833,5.5 409.167,5.5 409.5,5.5C 409.224,43.2141 408.891,80.8808 408.5,118.5C 408.833,121.345 409.833,123.845 411.5,126C 416.478,125.949 421.478,125.782 426.5,125.5C 421.358,126.891 416.025,127.891 410.5,128.5C 409.575,127.643 408.908,126.643 408.5,125.5C 407.172,85.4703 407.172,45.4703 408.5,5.5 Z"/></g>
<g><path style="opacity:1" fill="#2d6735" d="M 438.5,8.5 C 440.553,8.40206 442.22,9.06873 443.5,10.5C 441.219,10.9227 439.552,10.256 438.5,8.5 Z"/></g>
<g><path style="opacity:1" fill="#6d9573" d="M 395.5,18.5 C 396.919,17.5489 398.585,17.2155 400.5,17.5C 400.5,16.1667 400.5,14.8333 400.5,13.5C 393.492,13.3337 386.492,13.5004 379.5,14C 378.376,14.2492 377.376,14.7492 376.5,15.5C 375.95,17.6568 375.283,19.6568 374.5,21.5C 374.5,20.5 374.5,19.5 374.5,18.5C 374.308,15.1909 375.641,12.6909 378.5,11C 386.159,10.5003 393.826,10.3336 401.5,10.5C 401.5,13.1667 401.5,15.8333 401.5,18.5C 399.5,18.5 397.5,18.5 395.5,18.5 Z"/></g>
<g><path style="opacity:1" fill="#45784c" d="M 443.5,10.5 C 446.443,10.9802 449.11,11.9802 451.5,13.5C 448.833,13.5 446.167,13.5 443.5,13.5C 443.5,12.5 443.5,11.5 443.5,10.5 Z"/></g>
<g><path style="opacity:1" fill="#74cc1f" d="M 395.5,18.5 C 395.167,18.5 394.833,18.5 394.5,18.5C 389.645,17.3093 384.645,17.3093 379.5,18.5C 379.5,49.8333 379.5,81.1667 379.5,112.5C 386.5,112.5 393.5,112.5 400.5,112.5C 400.5,114.167 400.5,115.833 400.5,117.5C 392.471,117.656 384.471,117.323 376.5,116.5C 375.815,114.586 375.315,112.586 375,110.5C 374.5,80.8352 374.333,51.1685 374.5,21.5C 375.283,19.6568 375.95,17.6568 376.5,15.5C 377.376,14.7492 378.376,14.2492 379.5,14C 386.492,13.5004 393.492,13.3337 400.5,13.5C 400.5,14.8333 400.5,16.1667 400.5,17.5C 398.585,17.2155 396.919,17.5489 395.5,18.5 Z"/></g>
<g><path style="opacity:1" fill="#8ed44d" d="M 7.5,16.5 C 10.9021,19.7146 14.9021,22.2146 19.5,24C 29.0392,27.1348 38.7058,29.8014 48.5,32C 53.8643,34.0275 58.031,37.5275 61,42.5C 67.2971,53.3538 69.9638,65.0205 69,77.5C 58.5883,97.2963 42.0883,106.63 19.5,105.5C 19.6655,109.514 19.4988,113.514 19,117.5C 17.4117,119.968 15.5784,120.134 13.5,118C 11.7866,116.622 10.4533,114.955 9.5,113C 10.3295,111.184 11.1628,109.351 12,107.5C 13.0892,82.7441 11.4226,58.0775 7,33.5C 6.17095,29.8388 4.67095,26.5054 2.5,23.5C 3.80372,20.8699 5.47039,18.5366 7.5,16.5 Z M 48.5,38.5 C 48.9731,39.9063 49.9731,40.573 51.5,40.5C 55.7204,45.7679 59.0537,51.6012 61.5,58C 60.4258,58.7387 59.7591,59.7387 59.5,61C 65.0841,78.1646 59.4175,89.8313 42.5,96C 35.0794,98.5622 27.5794,100.729 20,102.5C 19.2189,101.271 18.7189,99.938 18.5,98.5C 19.5689,93.1996 19.7356,87.8662 19,82.5C 17.4027,64.9221 15.5694,47.4221 13.5,30C 26.2042,28.8382 37.8709,31.6716 48.5,38.5 Z"/></g>
<g><path style="opacity:1" fill="#95b299" d="M 391.5,18.5 C 392.5,18.5 393.5,18.5 394.5,18.5C 394.833,18.5 395.167,18.5 395.5,18.5C 395.5,19.5 395.5,20.5 395.5,21.5C 394.167,21.5 392.833,21.5 391.5,21.5C 391.5,20.5 391.5,19.5 391.5,18.5 Z"/></g>
<g><path style="opacity:1" fill="#2d6834" d="M 454.5,14.5 C 455.496,14.4142 456.329,14.7476 457,15.5C 457.667,49.5 457.667,83.5 457,117.5C 454.255,120.223 450.922,122.223 447,123.5C 444.722,122.892 442.388,123.225 440,124.5C 439.228,124.355 438.561,124.022 438,123.5C 434.35,125.046 430.516,125.713 426.5,125.5C 434.178,123.186 442.178,121.353 450.5,120C 452.09,118.954 453.59,117.787 455,116.5C 455.819,82.4583 455.653,48.4583 454.5,14.5 Z"/></g>
<g><path style="opacity:1" fill="#8bab90" d="M 374.5,18.5 C 374.5,19.5 374.5,20.5 374.5,21.5C 374.333,51.1685 374.5,80.8352 375,110.5C 375.315,112.586 375.815,114.586 376.5,116.5C 374.824,115.817 374.157,114.483 374.5,112.5C 373.5,112.5 372.5,112.5 371.5,112.5C 371.5,81.1667 371.5,49.8333 371.5,18.5C 372.5,18.5 373.5,18.5 374.5,18.5 Z"/></g>
<g><path style="opacity:1" fill="#58865e" d="M 394.5,18.5 C 393.5,18.5 392.5,18.5 391.5,18.5C 389.5,18.5 387.5,18.5 385.5,18.5C 385.5,19.5 385.5,20.5 385.5,21.5C 384.5,21.5 383.5,21.5 382.5,21.5C 382.5,51.1667 382.5,80.8333 382.5,110.5C 388.833,110.5 395.167,110.5 401.5,110.5C 401.5,113.5 401.5,116.5 401.5,119.5C 394.159,119.666 386.826,119.5 379.5,119C 378.058,118.623 377.058,117.79 376.5,116.5C 384.471,117.323 392.471,117.656 400.5,117.5C 400.5,115.833 400.5,114.167 400.5,112.5C 393.5,112.5 386.5,112.5 379.5,112.5C 379.5,81.1667 379.5,49.8333 379.5,18.5C 384.645,17.3093 389.645,17.3093 394.5,18.5 Z"/></g>
<g><path style="opacity:1" fill="#87d242" d="M 317.5,77.5 C 317.427,79.0269 318.094,80.0269 319.5,80.5C 321.519,81.5383 321.853,82.8716 320.5,84.5C 318.784,84.3713 317.117,84.038 315.5,83.5C 312.865,82.1891 310.531,80.5224 308.5,78.5C 308.027,77.0937 307.027,76.427 305.5,76.5C 302.851,74.86 300.184,73.1933 297.5,71.5C 297.167,72 296.833,72.5 296.5,73C 297.59,78.1371 298.09,83.3038 298,88.5C 296.267,90.6015 294.267,90.9348 292,89.5C 286.587,74.1303 285.087,58.4637 287.5,42.5C 286.114,39.7335 285.78,37.0668 286.5,34.5C 289.249,34.2739 291.916,34.6072 294.5,35.5C 295.452,37.0453 295.785,38.712 295.5,40.5C 295.405,44.2246 295.238,47.8913 295,51.5C 298.369,47.9626 301.869,44.6293 305.5,41.5C 306.906,41.0269 307.573,40.0269 307.5,38.5C 310.321,34.334 313.988,31.334 318.5,29.5C 312.665,40.6653 306.665,51.832 300.5,63C 305.978,67.9715 311.644,72.8048 317.5,77.5 Z"/></g>
<g><path style="opacity:1" fill="#82d03a" d="M 118.5,45.5 C 118.427,47.0269 119.094,48.0269 120.5,48.5C 121.866,54.3085 121.533,60.1418 119.5,66C 125.339,79.0738 121.672,87.9071 108.5,92.5C 106.217,91.6791 103.884,91.0124 101.5,90.5C 97.1546,93.1266 92.4879,93.9599 87.5,93C 86.6667,92.1667 85.8333,91.3333 85,90.5C 86.9214,85.4817 88.2547,80.1483 89,74.5C 89.8813,60.1451 90.8813,45.8117 92,31.5C 95.7027,30.0878 99.2027,30.5878 102.5,33C 108.593,36.2671 113.926,40.4337 118.5,45.5 Z M 112.5,49.5 C 112.932,50.7095 113.599,51.7095 114.5,52.5C 111.204,57.4815 106.537,59.8149 100.5,59.5C 100.5,54.1667 100.5,48.8333 100.5,43.5C 105.871,42.8522 109.871,44.8522 112.5,49.5 Z M 104.5,66.5 C 107.096,67.2653 109.763,67.5987 112.5,67.5C 112.666,71.5138 112.499,75.5138 112,79.5C 110.698,80.0848 109.531,80.7515 108.5,81.5C 105.123,81.9595 101.789,82.6261 98.5,83.5C 99.1995,79.2022 99.5328,74.8689 99.5,70.5C 100.434,69.4324 100.768,68.099 100.5,66.5C 101.833,66.5 103.167,66.5 104.5,66.5 Z"/></g>
<g><path style="opacity:1" fill="#b1e181" d="M 286.5,34.5 C 289.365,33.2172 292.365,33.2172 295.5,34.5C 296.793,36.6365 296.793,38.6365 295.5,40.5C 295.785,38.712 295.452,37.0453 294.5,35.5C 291.916,34.6072 289.249,34.2739 286.5,34.5 Z"/></g>
<g><path style="opacity:1" fill="#ceecac" d="M 48.5,38.5 C 50.0269,38.427 51.0269,39.0937 51.5,40.5C 49.9731,40.573 48.9731,39.9063 48.5,38.5 Z"/></g>
<g><path style="opacity:1" fill="#92d552" d="M 248.5,38.5 C 250.564,38.687 252.564,39.187 254.5,40C 261.349,46.1845 267.516,53.0179 273,60.5C 275.63,90.1865 262.797,100.02 234.5,90C 231.533,87.8995 229.7,85.0662 229,81.5C 226.184,66.2913 230.018,53.1247 240.5,42C 243.158,40.522 245.825,39.3554 248.5,38.5 Z M 245.5,45.5 C 253.856,44.7618 260.023,48.0951 264,55.5C 265.837,59.6838 267.671,63.8505 269.5,68C 266.179,75.9963 261.179,82.663 254.5,88C 247.642,88.8272 241.142,87.6605 235,84.5C 232.293,69.7924 235.793,56.7924 245.5,45.5 Z"/></g>
<g><path style="opacity:1" fill="#c8eaa3" d="M 307.5,38.5 C 307.573,40.0269 306.906,41.0269 305.5,41.5C 305.427,39.9731 306.094,38.9731 307.5,38.5 Z"/></g>
<g><path style="opacity:1" fill="#65906c" d="M 408.5,5.5 C 407.172,45.4703 407.172,85.4703 408.5,125.5C 407.167,105.845 406.5,85.8447 406.5,65.5C 406.5,45.1553 407.167,25.1553 408.5,5.5 Z"/></g>
<g><path style="opacity:1" fill="#c4e89e" d="M 118.5,45.5 C 119.906,45.9731 120.573,46.9731 120.5,48.5C 119.094,48.0269 118.427,47.0269 118.5,45.5 Z"/></g>
<g><path style="opacity:1" fill="#c6e9a0" d="M 112.5,49.5 C 114.048,49.8212 114.715,50.8212 114.5,52.5C 113.599,51.7095 112.932,50.7095 112.5,49.5 Z"/></g>
<g><path style="opacity:1" fill="#92d552" d="M 177.5,49.5 C 183.512,50.5031 189.512,50.5031 195.5,49.5C 196.994,49.7092 198.161,50.3759 199,51.5C 201.627,56.9792 202.461,62.6459 201.5,68.5C 197.143,71.0176 192.476,72.3509 187.5,72.5C 186.639,78.02 187.972,82.8533 191.5,87C 190.295,88.5379 188.795,89.7046 187,90.5C 186.055,90.0946 185.388,89.428 185,88.5C 181.897,75.6078 179.397,62.6078 177.5,49.5 Z M 185.5,55.5 C 194.2,53.3709 198.034,56.7042 197,65.5C 186.764,70.099 182.931,66.7657 185.5,55.5 Z"/></g>
<g><path style="opacity:1" fill="#85d13e" d="M 152.5,53.5 C 156.864,55.771 161.031,58.4377 165,61.5C 167.113,74.8794 161.613,79.5461 148.5,75.5C 147.292,74.218 145.958,74.218 144.5,75.5C 144.624,76.1067 144.957,76.44 145.5,76.5C 150.839,79.0852 156.505,80.5852 162.5,81C 165.993,82.4781 166.326,84.4781 163.5,87C 153.402,92.742 144.568,91.242 137,82.5C 136.294,78.1132 136.46,73.7799 137.5,69.5C 138.924,67.4855 139.59,65.1522 139.5,62.5C 140.34,60.1475 141.674,58.1475 143.5,56.5C 145.196,56.3146 146.529,55.4813 147.5,54C 149.134,53.5065 150.801,53.3398 152.5,53.5 Z M 156.5,63.5 C 157.301,65.0418 157.634,66.7085 157.5,68.5C 154.121,68.112 150.788,67.4453 147.5,66.5C 148.5,65.1667 149.5,63.8333 150.5,62.5C 152.409,63.3482 154.409,63.6816 156.5,63.5 Z"/></g>
<g><path style="opacity:1" fill="#fcfdfc" d="M 386.5,53.5 C 387.5,53.5 388.5,53.5 389.5,53.5C 389.5,54.5 389.5,55.5 389.5,56.5C 388.5,56.5 387.5,56.5 386.5,56.5C 386.5,55.5 386.5,54.5 386.5,53.5 Z"/></g>
<g><path style="opacity:1" fill="#bfe695" d="M 152.5,53.5 C 150.801,53.3398 149.134,53.5065 147.5,54C 146.529,55.4813 145.196,56.3146 143.5,56.5C 145.649,52.6518 148.649,51.6518 152.5,53.5 Z"/></g>
<g><path style="opacity:1" fill="#a6dd70" d="M 190.5,58.5 C 193.966,59.109 194.966,60.9423 193.5,64C 187.359,64.4754 186.359,62.6421 190.5,58.5 Z"/></g>
<g><path style="opacity:1" fill="#92d552" d="M 33.5,65.5 C 33.5569,64.391 33.8902,63.391 34.5,62.5C 37.755,59.6442 40.4217,60.3109 42.5,64.5C 41.5882,66.7431 39.9215,67.7431 37.5,67.5C 35.6455,67.6598 34.3121,66.9931 33.5,65.5 Z"/></g>
<g><path style="opacity:1" fill="#ceedb0" d="M 34.5,62.5 C 33.8902,63.391 33.5569,64.391 33.5,65.5C 32.1148,64.0527 32.4482,63.0527 34.5,62.5 Z"/></g>
<g><path style="opacity:1" fill="#95d757" d="M 246.5,62.5 C 248.5,62.5 250.5,62.5 252.5,62.5C 252.5,64.5 252.5,66.5 252.5,68.5C 249.039,69.1105 246.372,67.9439 244.5,65C 245.381,64.2917 246.047,63.4584 246.5,62.5 Z"/></g>
<g><path style="opacity:1" fill="#e6f5d6" d="M 156.5,63.5 C 157.649,63.7911 158.316,64.6244 158.5,66C 158.472,67.0698 158.139,67.9032 157.5,68.5C 157.634,66.7085 157.301,65.0418 156.5,63.5 Z"/></g>
<g><path style="opacity:1" fill="#e9ebe9" d="M 420.5,65.5 C 421.833,65.5 423.167,65.5 424.5,65.5C 424.5,67.5 424.5,69.5 424.5,71.5C 423.167,71.5 421.833,71.5 420.5,71.5C 420.5,69.5 420.5,67.5 420.5,65.5 Z"/></g>
<g><path style="opacity:1" fill="#cfedb1" d="M 104.5,66.5 C 103.167,66.5 101.833,66.5 100.5,66.5C 100.768,68.099 100.434,69.4324 99.5,70.5C 99.5,68.8333 99.5,67.1667 99.5,65.5C 101.415,65.2155 103.081,65.5489 104.5,66.5 Z"/></g>
<g><path style="opacity:1" fill="#aadf76" d="M 112.5,67.5 C 113.647,71.6463 113.814,75.9796 113,80.5C 111.644,81.3802 110.144,81.7135 108.5,81.5C 109.531,80.7515 110.698,80.0848 112,79.5C 112.499,75.5138 112.666,71.5138 112.5,67.5 Z"/></g>
<g><path style="opacity:1" fill="#b7e48b" d="M 139.5,62.5 C 139.59,65.1522 138.924,67.4855 137.5,69.5C 137.41,66.8478 138.076,64.5145 139.5,62.5 Z"/></g>
<g><path style="opacity:1" fill="#729977" d="M 413.5,65.5 C 414.833,65.5 416.167,65.5 417.5,65.5C 417.5,67.5 417.5,69.5 417.5,71.5C 417.5,72.1667 417.5,72.8333 417.5,73.5C 416.167,73.5 414.833,73.5 413.5,73.5C 413.5,70.8333 413.5,68.1667 413.5,65.5 Z"/></g>
<g><path style="opacity:1" fill="#dfe4e0" d="M 417.5,71.5 C 418.5,71.5 419.5,71.5 420.5,71.5C 420.768,73.099 420.434,74.4324 419.5,75.5C 418.833,75.5 418.5,75.1667 418.5,74.5C 418.5,73.8333 418.167,73.5 417.5,73.5C 417.5,72.8333 417.5,72.1667 417.5,71.5 Z"/></g>
<g><path style="opacity:1" fill="#3b7142" d="M 413.5,73.5 C 414.833,73.5 416.167,73.5 417.5,73.5C 418.167,73.5 418.5,73.8333 418.5,74.5C 418.5,75.1667 418.833,75.5 419.5,75.5C 419.56,76.0431 419.893,76.3764 420.5,76.5C 423.351,75.9879 424.684,74.3213 424.5,71.5C 424.5,69.5 424.5,67.5 424.5,65.5C 423.713,63.8958 422.38,63.2291 420.5,63.5C 419.508,63.3284 418.842,63.6618 418.5,64.5C 417.833,64.5 417.5,64.8333 417.5,65.5C 416.167,65.5 414.833,65.5 413.5,65.5C 414.23,63.955 415.563,63.1216 417.5,63C 423.846,60.8241 426.846,62.9908 426.5,69.5C 426.36,72.0432 425.694,74.3766 424.5,76.5C 420.861,77.4603 417.195,77.4603 413.5,76.5C 413.5,75.5 413.5,74.5 413.5,73.5 Z M 420.5,63.5 C 422.38,63.2291 423.713,63.8958 424.5,65.5C 423.167,65.5 421.833,65.5 420.5,65.5C 420.5,64.8333 420.5,64.1667 420.5,63.5 Z"/></g>
<g><path style="opacity:1" fill="#e0e7e2" d="M 420.5,63.5 C 420.5,64.1667 420.5,64.8333 420.5,65.5C 419.508,65.6716 418.842,65.3382 418.5,64.5C 418.842,63.6618 419.508,63.3284 420.5,63.5 Z"/></g>
<g><path style="opacity:1" fill="#cbebab" d="M 148.5,75.5 C 147.209,75.2627 146.209,75.596 145.5,76.5C 144.957,76.44 144.624,76.1067 144.5,75.5C 145.958,74.218 147.292,74.218 148.5,75.5 Z"/></g>
<g><path style="opacity:1" fill="#c8eaa4" d="M 305.5,76.5 C 307.027,76.427 308.027,77.0937 308.5,78.5C 306.973,78.573 305.973,77.9063 305.5,76.5 Z"/></g>
<g><path style="opacity:1" fill="#ceecad" d="M 317.5,77.5 C 318.906,77.9731 319.573,78.9731 319.5,80.5C 318.094,80.0269 317.427,79.0269 317.5,77.5 Z"/></g>
<g><path style="opacity:1" fill="#cfedaf" d="M 315.5,83.5 C 317.117,84.038 318.784,84.3713 320.5,84.5C 318.545,85.9302 316.879,85.5969 315.5,83.5 Z"/></g>
</svg>
