<svg width="507" height="211" viewBox="0 0 507 211" fill="none" xmlns="http://www.w3.org/2000/svg">
<path d="M123.875 205.875C121.625 208.312 118.719 209.531 115.156 209.531C111.594 209.531 108.641 208.312 106.297 205.875C104.047 203.438 102.922 200.297 102.922 196.453V164.812H15.0312C10.5312 164.812 6.96875 163.547 4.34375 161.016C1.71875 158.391 0.40625 154.875 0.40625 150.469C0.40625 147.281 0.828125 144.328 1.67188 141.609C2.51562 138.891 4.10938 135.469 6.45312 131.344C18.5469 109.781 42.2656 73.6406 77.6094 22.9219C83.3281 14.6719 88.2031 9.04688 92.2344 6.04688C96.3594 3.04688 101.188 1.54688 106.719 1.54688C113.469 1.54688 118.578 3.23438 122.047 6.60938C125.609 9.98438 127.391 14.9531 127.391 21.5156V142.594H145.953C149.422 142.594 152.234 143.625 154.391 145.688C156.641 147.75 157.766 150.422 157.766 153.703C157.766 156.984 156.641 159.656 154.391 161.719C152.234 163.781 149.422 164.812 145.953 164.812H127.391V196.453C127.391 200.297 126.219 203.438 123.875 205.875ZM102.922 142.594V26.0156H102.5C64.0625 80.9531 38.4688 119.625 25.7188 142.031V142.594H102.922Z" fill="#333333"/>
<path d="M251.562 210.375C228.031 210.375 209.656 201 196.438 182.25C183.312 163.406 176.75 137.812 176.75 105.469C176.75 73.4062 183.359 47.9531 196.578 29.1094C209.891 10.1719 228.219 0.703125 251.562 0.703125C274.906 0.703125 293.141 10.125 306.266 28.9688C319.484 47.7188 326.094 73.1719 326.094 105.328C326.094 137.672 319.531 163.266 306.406 182.109C293.281 200.953 275 210.375 251.562 210.375ZM215.141 166.078C223.766 180.891 235.906 188.297 251.562 188.297C267.219 188.297 279.312 180.938 287.844 166.219C296.375 151.406 300.641 131.156 300.641 105.469C300.641 80.1562 296.328 60.0938 287.703 45.2812C279.078 30.375 267.031 22.9219 251.562 22.9219C236.094 22.9219 224 30.375 215.281 45.2812C206.562 60.1875 202.203 80.2031 202.203 105.328C202.203 131.016 206.516 151.266 215.141 166.078Z" fill="#333333"/>
<path d="M472.625 205.875C470.375 208.312 467.469 209.531 463.906 209.531C460.344 209.531 457.391 208.312 455.047 205.875C452.797 203.438 451.672 200.297 451.672 196.453V164.812H363.781C359.281 164.812 355.719 163.547 353.094 161.016C350.469 158.391 349.156 154.875 349.156 150.469C349.156 147.281 349.578 144.328 350.422 141.609C351.266 138.891 352.859 135.469 355.203 131.344C367.297 109.781 391.016 73.6406 426.359 22.9219C432.078 14.6719 436.953 9.04688 440.984 6.04688C445.109 3.04688 449.938 1.54688 455.469 1.54688C462.219 1.54688 467.328 3.23438 470.797 6.60938C474.359 9.98438 476.141 14.9531 476.141 21.5156V142.594H494.703C498.172 142.594 500.984 143.625 503.141 145.688C505.391 147.75 506.516 150.422 506.516 153.703C506.516 156.984 505.391 159.656 503.141 161.719C500.984 163.781 498.172 164.812 494.703 164.812H476.141V196.453C476.141 200.297 474.969 203.438 472.625 205.875ZM451.672 142.594V26.0156H451.25C412.812 80.9531 387.219 119.625 374.469 142.031V142.594H451.672Z" fill="#333333"/>
</svg>
