<svg width="486" height="209" viewBox="0 0 486 209" fill="none" xmlns="http://www.w3.org/2000/svg">
<path d="M67.1993 209C52.3911 209 39.1762 205.589 27.5545 198.767C15.9329 191.945 7.73214 182.834 2.95227 171.433C0.98409 166.761 0 162.275 0 157.977C0 154.425 1.07781 151.575 3.23344 149.426C5.38907 147.277 8.24761 146.202 11.8091 146.202C14.9019 146.202 17.3387 146.996 19.1195 148.585C20.9939 150.08 22.4935 152.603 23.6182 156.154C26.711 165.966 32.0532 173.536 39.6448 178.863C47.3301 184.189 56.7023 186.852 67.7616 186.852C81.4452 186.852 92.5982 182.507 101.221 173.816C109.843 165.125 114.154 153.911 114.154 140.174C114.154 126.905 109.796 116.018 101.08 107.514C92.3639 98.9164 81.2109 94.6177 67.6211 94.6177C60.6856 94.6177 54.125 95.8793 47.9393 98.4024C41.7535 100.832 36.5519 104.29 32.3344 108.775C27.8357 113.541 24.6023 116.532 22.6341 117.746C20.6659 118.961 18.0885 119.569 14.9019 119.569C11.0593 119.569 8.06017 118.354 5.90454 115.924C3.74892 113.401 2.6711 110.271 2.6711 106.533C2.6711 105.224 2.71796 104.15 2.81169 103.309L9.98149 23.1288C10.6375 16.0266 12.6995 10.9803 16.1672 7.98994C19.7287 4.9061 25.2583 3.36419 32.7561 3.36419H117.528C121.09 3.36419 123.949 4.39213 126.104 6.44802C128.353 8.50391 129.478 11.214 129.478 14.5781C129.478 17.9423 128.353 20.6524 126.104 22.7083C123.949 24.7641 121.09 25.7921 117.528 25.7921H32.6156L26.1487 92.2347H26.711C31.3034 86.0671 37.5829 81.3011 45.5493 77.937C53.5158 74.5728 62.4663 72.8907 72.4009 72.8907C91.989 72.8907 108.062 79.1518 120.621 91.674C133.18 104.103 139.46 120.036 139.46 139.474C139.46 159.846 132.712 176.526 119.216 189.516C105.719 202.505 88.3807 209 67.1993 209Z" fill="#333333"/>
<path d="M236.885 209C213.36 209 194.99 199.655 181.776 180.965C168.654 162.182 162.094 136.67 162.094 104.43C162.094 72.4702 168.701 47.0986 181.916 28.3152C195.225 9.43841 213.548 0 236.885 0C260.222 0 278.451 9.39168 291.572 28.1751C304.787 46.865 311.394 72.2365 311.394 104.29C311.394 136.53 304.834 162.042 291.712 180.825C278.591 199.608 260.315 209 236.885 209ZM200.473 164.845C209.096 179.61 221.233 186.993 236.885 186.993C252.536 186.993 264.627 179.657 273.155 164.985C281.684 150.22 285.949 130.035 285.949 104.43C285.949 79.1985 281.637 59.2003 273.015 44.4353C264.392 29.5768 252.349 22.1476 236.885 22.1476C221.42 22.1476 209.33 29.5768 200.614 44.4353C191.898 59.2938 187.539 79.2452 187.539 104.29C187.539 129.895 191.851 150.08 200.473 164.845Z" fill="#333333"/>
<path d="M411.49 209C387.966 209 369.596 199.655 356.381 180.965C343.26 162.182 336.699 136.67 336.699 104.43C336.699 72.4702 343.307 47.0986 356.522 28.3152C369.83 9.43841 388.153 0 411.49 0C434.827 0 453.056 9.39168 466.178 28.1751C479.393 46.865 486 72.2365 486 104.29C486 136.53 479.439 162.042 466.318 180.825C453.197 199.608 434.921 209 411.49 209ZM375.079 164.845C383.701 179.61 395.839 186.993 411.49 186.993C427.142 186.993 439.232 179.657 447.761 164.985C456.29 150.22 460.554 130.035 460.554 104.43C460.554 79.1985 456.243 59.2003 447.62 44.4353C438.998 29.5768 426.955 22.1476 411.49 22.1476C396.026 22.1476 383.936 29.5768 375.22 44.4353C366.503 59.2938 362.145 79.2452 362.145 104.29C362.145 129.895 366.456 150.08 375.079 164.845Z" fill="#333333"/>
</svg>
