<svg width="21" height="23" viewBox="0 0 21 23" fill="none" xmlns="http://www.w3.org/2000/svg">
<path fill-rule="evenodd" clip-rule="evenodd" d="M4.00003 7.50545V7.5H2.56389C1.97752 7.5 1.85394 7.52386 1.73055 7.58985C1.66603 7.62436 1.62436 7.66603 1.58985 7.73055C1.52386 7.85394 1.5 7.97752 1.5 8.56389V20.4361C1.5 21.0225 1.52386 21.1461 1.58985 21.2694C1.62436 21.334 1.66603 21.3756 1.73055 21.4101C1.85394 21.4761 1.97752 21.5 2.56389 21.5H15.4361C16.0225 21.5 16.1461 21.4761 16.2694 21.4101C16.334 21.3756 16.3756 21.334 16.4101 21.2694C16.4761 21.1461 16.5 21.0225 16.5 20.4361V8.56389C16.5 7.97752 16.4761 7.85394 16.4101 7.73055C16.3756 7.66603 16.334 7.62436 16.2694 7.58985C16.1461 7.52386 16.0225 7.5 15.4361 7.5H14V7.50545H4.00003ZM2.56389 6H4.00003V5C4.00003 2.23858 6.23861 0 9.00003 0C11.7615 0 14 2.23858 14 5V6H15.4361C16.3276 6 16.6509 6.09283 16.9768 6.26713C17.3028 6.44144 17.5586 6.69723 17.7329 7.02315C17.9072 7.34908 18 7.67237 18 8.56388V20.4361C18 21.3276 17.9072 21.6509 17.7329 21.9768C17.5586 22.3028 17.3028 22.5586 16.9768 22.7329C16.6509 22.9072 16.3276 23 15.4361 23H2.56389C1.67237 23 1.34908 22.9072 1.02315 22.7329C0.697228 22.5586 0.44144 22.3028 0.267133 21.9768C0.0928256 21.6509 0 21.3276 0 20.4361V8.56388C0 7.67237 0.0928256 7.34908 0.267133 7.02315C0.44144 6.69723 0.697228 6.44144 1.02315 6.26713C1.34908 6.09283 1.67237 6 2.56389 6ZM9.00003 1.5C10.933 1.5 12.5 3.067 12.5 5V6.00545H5.50003V5C5.50003 3.067 7.06703 1.5 9.00003 1.5Z" fill="#333333"/>
<circle cx="17" cy="7" r="4" fill="#FF0000"/>
</svg>
