<svg width="127" height="61" viewBox="0 0 127 61" fill="none" xmlns="http://www.w3.org/2000/svg">
<path fill-rule="evenodd" clip-rule="evenodd" d="M103 58C114.598 58 124 48.598 124 37C124 25.402 114.598 16 103 16C91.402 16 82 25.402 82 37C82 48.598 91.402 58 103 58ZM103 61C116.255 61 127 50.2548 127 37C127 23.7452 116.255 13 103 13C89.7452 13 79 23.7452 79 37C79 50.2548 89.7452 61 103 61Z" fill="white"/>
<path d="M0 36H103V38H0V36Z" fill="white"/>
<path d="M12.078 16.1841L6.94803 21.2961L12.402 29.0001H9.61203L5.40003 22.8621L3.56403 24.6981V29.0001H1.33203V16.1841H3.56403V21.9981L9.23403 16.1841H12.078Z" fill="white"/>
<path d="M13.3123 22.5741C13.5283 20.4741 14.8843 19.4241 17.3803 19.4241C18.5443 19.4241 19.4683 19.6521 20.1523 20.1081C20.8483 20.5641 21.1963 21.2721 21.1963 22.2321V26.9481C21.1963 27.2121 21.2263 27.3921 21.2863 27.4881C21.3583 27.5841 21.4903 27.6321 21.6823 27.6321C21.8263 27.6321 21.9823 27.6201 22.1503 27.5961V29.0361C21.6223 29.1681 21.1783 29.2341 20.8183 29.2341C19.9423 29.2341 19.4383 28.8621 19.3063 28.1181C18.5263 28.8621 17.4403 29.2341 16.0483 29.2341C15.0883 29.2341 14.3263 28.9881 13.7623 28.4961C13.1983 27.9921 12.9163 27.3141 12.9163 26.4621C12.9163 26.1981 12.9463 25.9521 13.0063 25.7241C13.0663 25.4961 13.1323 25.2981 13.2043 25.1301C13.2883 24.9621 13.4143 24.8061 13.5823 24.6621C13.7623 24.5181 13.9063 24.3981 14.0143 24.3021C14.1343 24.2061 14.3203 24.1161 14.5723 24.0321C14.8363 23.9481 15.0283 23.8881 15.1483 23.8521C15.2803 23.8041 15.5023 23.7561 15.8143 23.7081C16.1263 23.6601 16.3303 23.6301 16.4263 23.6181C16.5343 23.5941 16.7503 23.5641 17.0743 23.5281C17.8063 23.4321 18.3043 23.3541 18.5683 23.2941C18.8323 23.2221 19.0123 23.1201 19.1083 22.9881C19.1923 22.8921 19.2343 22.6701 19.2343 22.3221C19.2343 21.3861 18.5983 20.9181 17.3263 20.9181C16.6543 20.9181 16.1623 21.0441 15.8503 21.2961C15.5383 21.5481 15.3403 21.9741 15.2563 22.5741H13.3123ZM19.2163 24.3381C19.0603 24.4221 18.8803 24.5001 18.6763 24.5721C18.4723 24.6321 18.3043 24.6741 18.1723 24.6981C18.0523 24.7101 17.8543 24.7341 17.5783 24.7701C17.3143 24.8061 17.1403 24.8301 17.0563 24.8421C16.8043 24.8781 16.6063 24.9141 16.4623 24.9501C16.3183 24.9741 16.1383 25.0221 15.9223 25.0941C15.7183 25.1661 15.5563 25.2561 15.4363 25.3641C15.3283 25.4601 15.2323 25.5981 15.1483 25.7781C15.0643 25.9461 15.0223 26.1501 15.0223 26.3901C15.0223 26.8341 15.1663 27.1761 15.4543 27.4161C15.7543 27.6561 16.1683 27.7761 16.6963 27.7761C17.6083 27.7761 18.3103 27.5301 18.8023 27.0381C19.0783 26.7621 19.2163 26.2281 19.2163 25.4361V24.3381Z" fill="white"/>
<path d="M30.5863 21.3321H27.5262V29.0001H25.4742V21.3321H22.4142V19.7121H30.5863V21.3321Z" fill="white"/>
<path d="M31.3475 22.5741C31.5635 20.4741 32.9195 19.4241 35.4155 19.4241C36.5795 19.4241 37.5035 19.6521 38.1875 20.1081C38.8835 20.5641 39.2315 21.2721 39.2315 22.2321V26.9481C39.2315 27.2121 39.2615 27.3921 39.3215 27.4881C39.3935 27.5841 39.5255 27.6321 39.7175 27.6321C39.8615 27.6321 40.0175 27.6201 40.1855 27.5961V29.0361C39.6575 29.1681 39.2135 29.2341 38.8535 29.2341C37.9775 29.2341 37.4735 28.8621 37.3415 28.1181C36.5615 28.8621 35.4755 29.2341 34.0835 29.2341C33.1235 29.2341 32.3615 28.9881 31.7975 28.4961C31.2335 27.9921 30.9515 27.3141 30.9515 26.4621C30.9515 26.1981 30.9815 25.9521 31.0415 25.7241C31.1015 25.4961 31.1675 25.2981 31.2395 25.1301C31.3235 24.9621 31.4495 24.8061 31.6175 24.6621C31.7975 24.5181 31.9415 24.3981 32.0495 24.3021C32.1695 24.2061 32.3555 24.1161 32.6075 24.0321C32.8715 23.9481 33.0635 23.8881 33.1835 23.8521C33.3155 23.8041 33.5375 23.7561 33.8495 23.7081C34.1615 23.6601 34.3655 23.6301 34.4615 23.6181C34.5695 23.5941 34.7854 23.5641 35.1095 23.5281C35.8414 23.4321 36.3395 23.3541 36.6035 23.2941C36.8675 23.2221 37.0475 23.1201 37.1435 22.9881C37.2275 22.8921 37.2695 22.6701 37.2695 22.3221C37.2695 21.3861 36.6335 20.9181 35.3615 20.9181C34.6895 20.9181 34.1975 21.0441 33.8855 21.2961C33.5735 21.5481 33.3755 21.9741 33.2915 22.5741H31.3475ZM37.2515 24.3381C37.0955 24.4221 36.9155 24.5001 36.7115 24.5721C36.5075 24.6321 36.3395 24.6741 36.2075 24.6981C36.0875 24.7101 35.8895 24.7341 35.6135 24.7701C35.3495 24.8061 35.1755 24.8301 35.0915 24.8421C34.8395 24.8781 34.6415 24.9141 34.4975 24.9501C34.3535 24.9741 34.1735 25.0221 33.9575 25.0941C33.7535 25.1661 33.5914 25.2561 33.4715 25.3641C33.3634 25.4601 33.2675 25.5981 33.1835 25.7781C33.0995 25.9461 33.0575 26.1501 33.0575 26.3901C33.0575 26.8341 33.2015 27.1761 33.4895 27.4161C33.7895 27.6561 34.2035 27.7761 34.7315 27.7761C35.6435 27.7761 36.3455 27.5301 36.8375 27.0381C37.1135 26.7621 37.2515 26.2281 37.2515 25.4361V24.3381Z" fill="white"/>
<path d="M49.6474 29.0001H47.5954V21.3321H44.7514L44.6254 25.4001C44.5894 26.6121 44.3254 27.5541 43.8334 28.2261C43.3534 28.8861 42.6934 29.2161 41.8534 29.2161C41.3374 29.2161 40.9174 29.1501 40.5934 29.0181V27.4161C40.7134 27.4761 40.9594 27.5061 41.3314 27.5061C42.1474 27.5061 42.5794 26.7381 42.6274 25.2021L42.7894 19.7121H49.6474V29.0001Z" fill="white"/>
<path d="M56.0773 19.4421C57.4933 19.4421 58.6213 19.8861 59.4613 20.7741C60.3013 21.6621 60.7213 22.8561 60.7213 24.3561C60.7213 25.8681 60.3013 27.0681 59.4613 27.9561C58.6333 28.8441 57.5053 29.2881 56.0773 29.2881C54.6253 29.2881 53.4733 28.8441 52.6213 27.9561C51.7693 27.0681 51.3433 25.8681 51.3433 24.3561C51.3433 22.8561 51.7693 21.6621 52.6213 20.7741C53.4853 19.8861 54.6373 19.4421 56.0773 19.4421ZM57.9493 21.9441C57.4933 21.3561 56.8573 21.0621 56.0413 21.0621C55.2253 21.0621 54.5833 21.3561 54.1153 21.9441C53.6473 22.5321 53.4133 23.3361 53.4133 24.3561C53.4133 25.4001 53.6473 26.2161 54.1153 26.8041C54.5833 27.3921 55.2313 27.6861 56.0593 27.6861C56.8633 27.6861 57.4933 27.3921 57.9493 26.8041C58.4173 26.2041 58.6513 25.3821 58.6513 24.3381C58.6513 23.3181 58.4173 22.5201 57.9493 21.9441Z" fill="white"/>
<path d="M68.9433 21.3321H64.4973V29.0001H62.4453V19.7121H68.9433V21.3321Z" fill="white"/>
</svg>
