<svg width="127" height="61" viewBox="0 0 127 61" fill="none" xmlns="http://www.w3.org/2000/svg">
<path fill-rule="evenodd" clip-rule="evenodd" d="M103 58C114.598 58 124 48.598 124 37C124 25.402 114.598 16 103 16C91.402 16 82 25.402 82 37C82 48.598 91.402 58 103 58ZM103 61C116.255 61 127 50.2548 127 37C127 23.7452 116.255 13 103 13C89.7452 13 79 23.7452 79 37C79 50.2548 89.7452 61 103 61Z" fill="white"/>
<path d="M0 36H103V38H0V36Z" fill="white"/>
<path d="M12.078 16.184L6.94803 21.296L12.402 29H9.61203L5.40003 22.862L3.56403 24.698V29H1.33203V16.184H3.56403V21.998L9.23403 16.184H12.078Z" fill="white"/>
<path d="M13.3123 22.574C13.5283 20.474 14.8843 19.424 17.3803 19.424C18.5443 19.424 19.4683 19.652 20.1523 20.108C20.8483 20.564 21.1963 21.272 21.1963 22.232V26.948C21.1963 27.212 21.2263 27.392 21.2863 27.488C21.3583 27.584 21.4903 27.632 21.6823 27.632C21.8263 27.632 21.9823 27.62 22.1503 27.596V29.036C21.6223 29.168 21.1783 29.234 20.8183 29.234C19.9423 29.234 19.4383 28.862 19.3063 28.118C18.5263 28.862 17.4403 29.234 16.0483 29.234C15.0883 29.234 14.3263 28.988 13.7623 28.496C13.1983 27.992 12.9163 27.314 12.9163 26.462C12.9163 26.198 12.9463 25.952 13.0063 25.724C13.0663 25.496 13.1323 25.298 13.2043 25.13C13.2883 24.962 13.4143 24.806 13.5823 24.662C13.7623 24.518 13.9063 24.398 14.0143 24.302C14.1343 24.206 14.3203 24.116 14.5723 24.032C14.8363 23.948 15.0283 23.888 15.1483 23.852C15.2803 23.804 15.5023 23.756 15.8143 23.708C16.1263 23.66 16.3303 23.63 16.4263 23.618C16.5343 23.594 16.7503 23.564 17.0743 23.528C17.8063 23.432 18.3043 23.354 18.5683 23.294C18.8323 23.222 19.0123 23.12 19.1083 22.988C19.1923 22.892 19.2343 22.67 19.2343 22.322C19.2343 21.386 18.5983 20.918 17.3263 20.918C16.6543 20.918 16.1623 21.044 15.8503 21.296C15.5383 21.548 15.3403 21.974 15.2563 22.574H13.3123ZM19.2163 24.338C19.0603 24.422 18.8803 24.5 18.6763 24.572C18.4723 24.632 18.3043 24.674 18.1723 24.698C18.0523 24.71 17.8543 24.734 17.5783 24.77C17.3143 24.806 17.1403 24.83 17.0563 24.842C16.8043 24.878 16.6063 24.914 16.4623 24.95C16.3183 24.974 16.1383 25.022 15.9223 25.094C15.7183 25.166 15.5563 25.256 15.4363 25.364C15.3283 25.46 15.2323 25.598 15.1483 25.778C15.0643 25.946 15.0223 26.15 15.0223 26.39C15.0223 26.834 15.1663 27.176 15.4543 27.416C15.7543 27.656 16.1683 27.776 16.6963 27.776C17.6083 27.776 18.3103 27.53 18.8023 27.038C19.0783 26.762 19.2163 26.228 19.2163 25.436V24.338Z" fill="white"/>
<path d="M30.5863 21.332H27.5262V29H25.4742V21.332H22.4142V19.712H30.5863V21.332Z" fill="white"/>
<path d="M31.3475 22.574C31.5635 20.474 32.9195 19.424 35.4155 19.424C36.5795 19.424 37.5035 19.652 38.1875 20.108C38.8835 20.564 39.2315 21.272 39.2315 22.232V26.948C39.2315 27.212 39.2615 27.392 39.3215 27.488C39.3935 27.584 39.5255 27.632 39.7175 27.632C39.8615 27.632 40.0175 27.62 40.1855 27.596V29.036C39.6575 29.168 39.2135 29.234 38.8535 29.234C37.9775 29.234 37.4735 28.862 37.3415 28.118C36.5615 28.862 35.4755 29.234 34.0835 29.234C33.1235 29.234 32.3615 28.988 31.7975 28.496C31.2335 27.992 30.9515 27.314 30.9515 26.462C30.9515 26.198 30.9815 25.952 31.0415 25.724C31.1015 25.496 31.1675 25.298 31.2395 25.13C31.3235 24.962 31.4495 24.806 31.6175 24.662C31.7975 24.518 31.9415 24.398 32.0495 24.302C32.1695 24.206 32.3555 24.116 32.6075 24.032C32.8715 23.948 33.0635 23.888 33.1835 23.852C33.3155 23.804 33.5375 23.756 33.8495 23.708C34.1615 23.66 34.3655 23.63 34.4615 23.618C34.5695 23.594 34.7854 23.564 35.1095 23.528C35.8414 23.432 36.3395 23.354 36.6035 23.294C36.8675 23.222 37.0475 23.12 37.1435 22.988C37.2275 22.892 37.2695 22.67 37.2695 22.322C37.2695 21.386 36.6335 20.918 35.3615 20.918C34.6895 20.918 34.1975 21.044 33.8855 21.296C33.5735 21.548 33.3755 21.974 33.2915 22.574H31.3475ZM37.2515 24.338C37.0955 24.422 36.9155 24.5 36.7115 24.572C36.5075 24.632 36.3395 24.674 36.2075 24.698C36.0875 24.71 35.8895 24.734 35.6135 24.77C35.3495 24.806 35.1755 24.83 35.0915 24.842C34.8395 24.878 34.6415 24.914 34.4975 24.95C34.3535 24.974 34.1735 25.022 33.9575 25.094C33.7535 25.166 33.5914 25.256 33.4715 25.364C33.3634 25.46 33.2675 25.598 33.1835 25.778C33.0995 25.946 33.0575 26.15 33.0575 26.39C33.0575 26.834 33.2015 27.176 33.4895 27.416C33.7895 27.656 34.2035 27.776 34.7315 27.776C35.6435 27.776 36.3455 27.53 36.8375 27.038C37.1135 26.762 37.2515 26.228 37.2515 25.436V24.338Z" fill="white"/>
<path d="M49.6474 29H47.5954V21.332H44.7514L44.6254 25.4C44.5894 26.612 44.3254 27.554 43.8334 28.226C43.3534 28.886 42.6934 29.216 41.8534 29.216C41.3374 29.216 40.9174 29.15 40.5934 29.018V27.416C40.7134 27.476 40.9594 27.506 41.3314 27.506C42.1474 27.506 42.5794 26.738 42.6274 25.202L42.7894 19.712H49.6474V29Z" fill="white"/>
<path d="M56.0773 19.442C57.4933 19.442 58.6213 19.886 59.4613 20.774C60.3013 21.662 60.7213 22.856 60.7213 24.356C60.7213 25.868 60.3013 27.068 59.4613 27.956C58.6333 28.844 57.5053 29.288 56.0773 29.288C54.6253 29.288 53.4733 28.844 52.6213 27.956C51.7693 27.068 51.3433 25.868 51.3433 24.356C51.3433 22.856 51.7693 21.662 52.6213 20.774C53.4853 19.886 54.6373 19.442 56.0773 19.442ZM57.9493 21.944C57.4933 21.356 56.8573 21.062 56.0413 21.062C55.2253 21.062 54.5833 21.356 54.1153 21.944C53.6473 22.532 53.4133 23.336 53.4133 24.356C53.4133 25.4 53.6473 26.216 54.1153 26.804C54.5833 27.392 55.2313 27.686 56.0593 27.686C56.8633 27.686 57.4933 27.392 57.9493 26.804C58.4173 26.204 58.6513 25.382 58.6513 24.338C58.6513 23.318 58.4173 22.52 57.9493 21.944Z" fill="white"/>
<path d="M68.9433 21.332H64.4973V29H62.4453V19.712H68.9433V21.332Z" fill="white"/>
</svg>
