<svg width="866" height="247" viewBox="0 0 866 247" fill="none" xmlns="http://www.w3.org/2000/svg">
<path fill-rule="evenodd" clip-rule="evenodd" d="M805 42.5C826.539 42.5 844 59.9609 844 81.5V247H866V81.5C866 47.8106 838.689 20.5 805 20.5H532.5V42.5H805Z" fill="#333333"/>
<path d="M534.331 11.0655C535.851 11.2343 537 12.5185 537 14.0471L537 46.9528C537 48.4814 535.851 49.7656 534.331 49.9344L470.324 57.0463C469.14 57.1779 468.103 56.2505 468.103 55.0585L468.103 5.94138C468.103 4.74935 469.14 3.82197 470.324 3.95361L534.331 11.0655Z" fill="#333333"/>
<rect x="466.572" y="0.644775" width="59.7103" height="13.7793" rx="2" transform="rotate(90 466.572 0.644775)" fill="#333333"/>
<path d="M317.669 49.9344C316.149 49.7656 315 48.4814 315 46.9528L315 14.0472C315 12.5185 316.149 11.2343 317.669 11.0655L381.676 3.95364C382.86 3.82201 383.897 4.74939 383.897 5.94141L383.897 55.0586C383.897 56.2506 382.86 57.178 381.676 57.0463L317.669 49.9344Z" fill="#333333"/>
<rect x="385.428" y="60.3552" width="59.7103" height="13.7793" rx="2" transform="rotate(-90 385.428 60.3552)" fill="#333333"/>
<rect x="396.145" y="46.5759" width="7.65517" height="26.0276" rx="2" transform="rotate(-90 396.145 46.5759)" fill="#333333"/>
<rect x="396.145" y="22.0792" width="7.65517" height="26.0276" rx="2" transform="rotate(-90 396.145 22.0792)" fill="#333333"/>
<path fill-rule="evenodd" clip-rule="evenodd" d="M61 42.5C39.4609 42.5 22 59.9609 22 81.5V247H0V81.5C0 47.8106 27.3106 20.5 61 20.5H316V42.5H61Z" fill="#333333"/>
</svg>
