<svg width="26" height="26" viewBox="0 0 26 26" fill="none" xmlns="http://www.w3.org/2000/svg">
<path fill-rule="evenodd" clip-rule="evenodd" d="M13 0C20.1797 0 26 5.8203 26 13C26 20.1797 20.1797 26 13 26C5.8203 26 0 20.1797 0 13C0 5.8203 5.8203 0 13 0ZM12.9999 1.18172C19.5269 1.18172 24.8181 6.4729 24.8181 12.9999C24.8181 19.5269 19.5269 24.8181 12.9999 24.8181C6.4729 24.8181 1.18172 19.5269 1.18172 12.9999C1.18172 6.4729 6.4729 1.18172 12.9999 1.18172ZM19.5 13.5909H13.5909H12.4091H6.5V12.4091H12.4091H13.5909H19.5V13.5909Z" fill="#333333"/>
</svg>
